<svg width="81" height="91" viewBox="0 0 81 91" fill="none" xmlns="http://www.w3.org/2000/svg">
<g id="01" clip-path="url(#clip0_1301_609)">
<g id="Clip path group">
<mask id="mask0_1301_609" style="mask-type:luminance" maskUnits="userSpaceOnUse" x="0" y="0" width="81" height="91">
<g id="clippath">
<path id="Vector" d="M80.4468 0H0.5V91H80.4468V0Z" fill="white"/>
</g>
</mask>
<g mask="url(#mask0_1301_609)">
<g id="Group">
<path id="Vector_2" d="M44.5904 30.6732C53.0117 30.6732 59.8579 23.7976 59.8579 15.3436C59.8579 6.88959 53.0089 0.0224609 44.5904 0.0224609C36.1718 0.0224609 29.3284 6.89521 29.3284 15.3436C29.3284 23.792 36.1746 30.6732 44.5904 30.6732ZM28.9675 58.3355L50.67 65.5397C52.5473 66.1632 53.949 67.6293 54.5365 69.4212L66.7489 61.5626V59.0124L55.7452 47.9576C52.0828 44.281 52.0828 38.2958 55.7452 34.6137C55.8571 34.4985 55.9718 34.389 56.0893 34.2851C54.391 33.684 52.5892 33.3695 50.7819 33.3695H38.4017C29.597 33.3695 22.4319 40.5596 22.4319 49.3984V58.4282C24.519 57.6389 26.7433 57.5968 28.9675 58.3383V58.3355ZM73.6034 44.2249C73.6034 43.4806 73.0019 42.8767 72.2633 42.8767H69.4319V40.0372C69.4319 39.2929 68.8304 38.6918 68.0918 38.6918C67.3532 38.6918 66.7517 39.2957 66.7517 40.0372V42.8767H63.9287C63.1873 42.8767 62.5858 43.4806 62.5858 44.2249C62.5858 44.9692 63.1873 45.5702 63.9287 45.5702H66.7517V48.4041C66.7517 49.1484 67.3532 49.7495 68.0918 49.7495C68.8304 49.7495 69.4319 49.1456 69.4319 48.4041V45.5702H72.2633C73.0047 45.5702 73.6034 44.9664 73.6034 44.2249ZM80.5 41.2842C80.5 43.0902 79.8033 44.7838 78.5387 46.0505L68.0918 56.5436L57.6449 46.0505C55.0289 43.4244 55.0289 39.144 57.6449 36.5123C58.9067 35.2456 60.5937 34.5491 62.3927 34.5491C64.1917 34.5491 65.8815 35.2456 67.1433 36.5151C67.6665 37.0404 68.5171 37.0404 69.0402 36.5151C71.6618 33.8891 75.9256 33.8891 78.5415 36.5151C79.8061 37.7847 80.5028 39.4783 80.5028 41.2842H80.5ZM68.4135 63.6888L54.6876 72.5191C54.3295 74.2071 53.3363 75.7013 51.9513 76.586C51.0449 77.1674 50.0097 77.4595 48.9269 77.4595C48.2499 77.4595 47.5532 77.3444 46.8566 77.1141L36.9692 73.8336C36.2669 73.6005 35.8864 72.8393 36.1187 72.1315C36.3509 71.4266 37.1091 71.0446 37.8113 71.2777L47.6987 74.5582C48.7619 74.9121 49.7047 74.8307 50.5105 74.3167C51.375 73.7634 51.9961 72.7185 52.1248 71.5951C52.1304 71.5417 52.1388 71.494 52.1528 71.4434C52.1976 69.9576 51.2435 68.5646 49.825 68.0955L28.1226 60.8885C26.0102 60.1864 23.979 60.4195 22.0849 61.5795L12.6592 67.3372L21.033 80.5125L25.6885 77.6702C26.0214 77.4652 26.4327 77.4202 26.8076 77.5438L44.6771 83.4728C47.0776 84.2733 49.4725 83.97 51.5988 82.5993L72.0759 69.424C73.6482 68.4129 74.1098 66.298 73.1026 64.7139C72.0926 63.1355 69.9887 62.6748 68.4135 63.6916V63.6888ZM19.4802 83.0768L21.0833 85.599L12.6592 90.9916L0.5 71.8535L8.92135 66.4609L19.455 83.0375C19.455 83.0375 19.4578 83.0459 19.4606 83.0515C19.469 83.06 19.4746 83.0712 19.4802 83.0796V83.0768Z" fill="#3191FF"/>
</g>
</g>
</g>
</g>
<defs>
<clipPath id="clip0_1301_609">
<rect width="80" height="91" fill="white" transform="translate(0.5)"/>
</clipPath>
</defs>
</svg>
