<svg width="76" height="92" viewBox="0 0 76 92" fill="none" xmlns="http://www.w3.org/2000/svg">
<g id="02">
<g id="Clip path group">
<mask id="mask0_1301_626" style="mask-type:luminance" maskUnits="userSpaceOnUse" x="0" y="8" width="76" height="76">
<g id="clippath">
<path id="Vector" d="M76 8H0V84H76V8Z" fill="white"/>
</g>
</mask>
<g mask="url(#mask0_1301_626)">
<g id="Group">
<path id="Vector_2" d="M38.7905 64.9977H37.2072C34.1507 64.9977 31.6667 62.5112 31.6667 59.4572V52.331H24.5405C21.4841 52.331 19 49.8446 19 46.7905V45.2072C19 42.1507 21.4864 39.6667 24.5405 39.6667H31.6667V32.5405C31.6667 29.4841 34.1531 27 37.2072 27H38.7905C41.8469 27 44.331 29.4864 44.331 32.5405V39.6667H51.4572C54.5136 39.6667 56.9977 42.1531 56.9977 45.2072V46.7905C56.9977 49.8469 54.5112 52.331 51.4572 52.331H44.331V59.4572C44.331 62.5136 41.8446 64.9977 38.7905 64.9977Z" fill="#3191FF"/>
<path id="Vector_3" d="M65.6133 15.03L63.0917 17.5516C56.2423 11.4481 47.4179 8 38 8C17.046 8 0 25.046 0 46C0 49.7156 0.548889 53.4076 1.62556 56.9754C1.93284 58.0052 2.8758 58.6667 3.89617 58.6667C4.12136 58.6667 4.35593 58.6362 4.58346 58.5658C5.83839 58.1858 6.54914 56.8628 6.16914 55.6056C5.22852 52.4811 4.75 49.2511 4.75 46C4.75 27.6662 19.6638 12.75 38 12.75C46.1418 12.75 53.777 15.6938 59.7327 20.9083L57.6967 22.9467C56.2025 24.4362 57.2557 27 59.3738 27H67.2905C68.6017 27 69.6643 25.9351 69.6643 24.6262V16.7095C69.6643 14.6101 67.1146 13.5311 65.611 15.0323L65.6133 15.03Z" fill="#3191FF"/>
<path id="Vector_4" d="M74.3745 35.0245C73.9945 33.7696 72.6809 33.0518 71.4142 33.4341C70.1593 33.8141 69.4486 35.1371 69.8286 36.3944C70.7715 39.5188 71.25 42.7488 71.25 45.9999C71.25 64.3361 56.3362 79.2499 38 79.2499C29.8582 79.2499 22.223 76.3061 16.2673 71.0917L18.3034 69.0533C19.7976 67.5638 18.7444 64.9999 16.6239 64.9999H8.7072C7.39597 64.9999 6.33337 66.0649 6.33337 67.3738V75.2904C6.33337 77.4086 8.90189 78.4548 10.3867 76.9699L12.9083 74.4483C19.7577 80.5494 28.5845 83.9999 38 83.9999C58.954 83.9999 76 66.9539 76 45.9999C76 42.2844 75.4512 38.5923 74.3745 35.0245Z" fill="#3191FF"/>
</g>
</g>
</g>
</g>
</svg>
