<svg width="103" height="92" viewBox="0 0 103 92" fill="none" xmlns="http://www.w3.org/2000/svg">
<g id="03">
<g id="Clip path group">
<mask id="mask0_1301_652" style="mask-type:luminance" maskUnits="userSpaceOnUse" x="7" y="2" width="88" height="88">
<g id="clippath">
<path id="Vector" d="M95 2H7V90H95V2Z" fill="white"/>
</g>
</mask>
<g mask="url(#mask0_1301_652)">
<g id="Group">
<path id="Vector_2" d="M90.6677 50.1474C85.0943 44.6175 76.0309 44.6175 70.4575 50.1474C70.281 50.324 70.1044 50.5141 69.9306 50.7042C69.7541 50.5141 69.5775 50.324 69.4037 50.1474C63.8304 44.6175 54.7669 44.6175 49.1936 50.1474C46.4938 52.8309 45 56.3943 45 60.1941C45 63.9938 46.4802 67.5573 49.1936 70.2543L68.9067 89.5709C69.1864 89.8506 69.5667 89.9973 69.9333 89.9973C70.3 89.9973 70.6802 89.8506 70.96 89.5709L90.6731 70.2543C93.3728 67.5709 94.8667 64.0074 94.8667 60.2077C94.8667 56.4079 93.3864 52.8444 90.6731 50.161V50.1474H90.6677Z" fill="#3191FF"/>
<path id="Vector_3" d="M81.8 65.0666H78.1931L75.6997 61.3266C75.4064 60.8866 74.9365 60.653 74.3933 60.6802C73.8664 60.7101 73.4101 61.017 73.1765 61.4869L70.1835 67.4567L67.0301 60.0935C66.8237 59.6101 66.3701 59.2733 65.8568 59.2135C65.3299 59.1538 64.8165 59.3738 64.5069 59.7866L60.5469 65.0666H56.8802C56.0736 65.0666 55.4136 65.7266 55.4136 66.5333C55.4136 67.34 56.0736 68 56.8802 68H61.2802C61.7338 68 62.1738 67.78 62.4536 67.4133L65.3272 63.5701L68.7304 71.5037C68.9504 72.0306 69.4637 72.3701 70.0368 72.3972H70.0802C70.637 72.3972 71.1368 72.0903 71.3867 71.5906L74.6568 65.0503L76.1832 67.3535C76.463 67.7637 76.9165 68.0135 77.4 68.0135H81.8C82.6067 68.0135 83.2667 67.3535 83.2667 66.5469C83.2667 65.7402 82.6067 65.0802 81.8 65.0802V65.0666Z" fill="white"/>
<path id="Vector_4" d="M45.1333 4.93333V10.8C45.1333 11.6067 44.4733 12.2667 43.6667 12.2667H31.9333C31.1267 12.2667 30.4667 11.6067 30.4667 10.8V4.93333H45.1333ZM52.7002 78.2667H15.8C12.5598 78.2667 9.93333 75.6403 9.93333 72.4V10.8C9.93333 7.55975 12.5598 4.93333 15.8 4.93333H27.5333V7.86667H15.8C14.1867 7.86667 12.8667 9.18667 12.8667 10.8V72.4C12.8667 74.0133 14.1867 75.3333 15.8 75.3333H46.7168C47.5235 75.3333 48.1835 74.6733 48.1835 73.8667C48.1835 73.06 47.5235 72.4 46.7168 72.4H15.8V10.8H27.5333C27.5333 13.22 29.5133 15.2 31.9333 15.2H43.6667C46.0867 15.2 48.0667 13.22 48.0667 10.8H59.8V41.7032C59.8 42.5099 60.46 43.1699 61.2667 43.1699C62.0733 43.1699 62.7333 42.5099 62.7333 41.7032V10.8C62.7333 9.18667 61.4133 7.86667 59.8 7.86667H48.0667V4.93333H59.8C63.0402 4.93333 65.6667 7.55975 65.6667 10.8V43.2568C65.6667 44.0635 66.3267 44.7235 67.1333 44.7235C67.94 44.7235 68.6 44.0635 68.6 43.2568V10.8C68.6 5.94642 64.6536 2 59.8 2H15.8C10.9464 2 7 5.94642 7 10.8V72.4C7 77.2536 10.9464 81.2 15.8 81.2H52.7002C53.5069 81.2 54.1669 80.54 54.1669 79.7333C54.1669 78.9267 53.5069 78.2667 52.7002 78.2667Z" fill="#3191FF"/>
<path id="Vector_5" d="M45.1333 32.8H40.7333C39.9267 32.8 39.2667 33.46 39.2667 34.2667V38.6667H36.3333V34.2667C36.3333 33.46 35.6733 32.8 34.8667 32.8H30.4667V29.8667H34.8667C35.6733 29.8667 36.3333 29.2067 36.3333 28.4V24H39.2667V28.4C39.2667 29.2067 39.9267 29.8667 40.7333 29.8667H45.1333V32.8ZM48.0667 34.2667V28.4C48.0667 27.5933 47.4067 26.9333 46.6 26.9333H42.2V22.5333C42.2 21.7267 41.54 21.0667 40.7333 21.0667H34.8667C34.06 21.0667 33.4 21.7267 33.4 22.5333V26.9333H29C28.1933 26.9333 27.5333 27.5933 27.5333 28.4V34.2667C27.5333 35.0733 28.1933 35.7333 29 35.7333H33.4V40.1333C33.4 40.94 34.06 41.6 34.8667 41.6H40.7333C41.54 41.6 42.2 40.94 42.2 40.1333V35.7333H46.6C47.4067 35.7333 48.0667 35.0733 48.0667 34.2667Z" fill="#3191FF"/>
<path id="Vector_6" d="M26.0667 51.8667H23.1333V48.9333H26.0667V51.8667ZM29 47.4667C29 46.66 28.34 46 27.5333 46H21.6667C20.86 46 20.2 46.66 20.2 47.4667V53.3333C20.2 54.14 20.86 54.8 21.6667 54.8H27.5333C28.34 54.8 29 54.14 29 53.3333V47.4667Z" fill="#3191FF"/>
<path id="Vector_7" d="M33.4 48.9333H37.8C38.6067 48.9333 39.2667 48.2733 39.2667 47.4667C39.2667 46.66 38.6067 46 37.8 46H33.4C32.5933 46 31.9333 46.66 31.9333 47.4667C31.9333 48.2733 32.5933 48.9333 33.4 48.9333Z" fill="#3191FF"/>
<path id="Vector_8" d="M42.2 51.8667H33.4C32.5933 51.8667 31.9333 52.5267 31.9333 53.3334C31.9333 54.14 32.5933 54.8 33.4 54.8H42.2C43.0067 54.8 43.6667 54.14 43.6667 53.3334C43.6667 52.5267 43.0067 51.8667 42.2 51.8667Z" fill="#3191FF"/>
<path id="Vector_9" d="M26.0667 65.0666H23.1333V62.1333H26.0667V65.0666ZM27.5333 59.2H21.6667C20.86 59.2 20.2 59.8599 20.2 60.6666V66.5333C20.2 67.34 20.86 67.9999 21.6667 67.9999H27.5333C28.34 67.9999 29 67.34 29 66.5333V60.6666C29 59.8599 28.34 59.2 27.5333 59.2Z" fill="#3191FF"/>
<path id="Vector_10" d="M33.4 62.1333H37.8C38.6067 62.1333 39.2667 61.4733 39.2667 60.6666C39.2667 59.8599 38.6067 59.2 37.8 59.2H33.4C32.5933 59.2 31.9333 59.8599 31.9333 60.6666C31.9333 61.4733 32.5933 62.1333 33.4 62.1333Z" fill="#3191FF"/>
<path id="Vector_11" d="M33.4 68H42.2C43.0067 68 43.6667 67.34 43.6667 66.5333C43.6667 65.7267 43.0067 65.0667 42.2 65.0667H33.4C32.5933 65.0667 31.9333 65.7267 31.9333 66.5333C31.9333 67.34 32.5933 68 33.4 68Z" fill="#3191FF"/>
</g>
</g>
</g>
</g>
</svg>
