<svg width="263" height="263" viewBox="0 0 263 263" fill="none" xmlns="http://www.w3.org/2000/svg">
<path d="M262.1 116.034C262.498 119.428 262.766 122.862 262.9 126.33L261.901 126.368C261.967 128.071 262 129.781 262 131.5C262 133.219 261.967 134.929 261.901 136.632L262.9 136.67C262.766 140.138 262.498 143.572 262.1 146.966L261.107 146.849C260.707 150.265 260.175 153.64 259.516 156.97L260.497 157.164C259.825 160.561 259.022 163.911 258.094 167.209L257.131 166.938C256.201 170.241 255.145 173.49 253.967 176.681L254.906 177.027C253.709 180.269 252.388 183.452 250.949 186.568L250.041 186.149C248.605 189.259 247.05 192.303 245.382 195.275L246.254 195.765C244.566 198.773 242.763 201.708 240.851 204.563L240.02 204.007C238.116 206.85 236.104 209.615 233.989 212.294L234.774 212.913C232.639 215.618 230.401 218.236 228.064 220.762L227.33 220.083C225.01 222.592 222.592 225.01 220.083 227.33L220.762 228.064C218.236 230.401 215.618 232.639 212.913 234.774L212.294 233.989C209.614 236.104 206.85 238.116 204.007 240.02L204.563 240.851C201.708 242.763 198.773 244.566 195.764 246.254L195.275 245.382C192.303 247.05 189.259 248.605 186.149 250.041L186.568 250.949C183.452 252.388 180.269 253.709 177.027 254.906L176.681 253.967C173.49 255.145 170.241 256.201 166.938 257.131L167.209 258.094C163.911 259.022 160.561 259.825 157.164 260.497L156.97 259.516C153.64 260.175 150.265 260.707 146.849 261.107L146.966 262.1C143.572 262.498 140.138 262.766 136.67 262.9L136.632 261.901C134.929 261.967 133.219 262 131.5 262C129.781 262 128.071 261.967 126.368 261.901L126.33 262.9C122.862 262.766 119.428 262.498 116.034 262.1L116.151 261.107C112.735 260.707 109.36 260.175 106.03 259.516L105.836 260.497C102.439 259.825 99.0887 259.022 95.791 258.094L96.0619 257.131C92.7594 256.201 89.51 255.145 86.3192 253.967L85.973 254.906C82.7307 253.709 79.5484 252.388 76.4321 250.949L76.8513 250.041C73.7412 248.605 70.6971 247.05 67.7249 245.382L67.2355 246.254C64.2274 244.566 61.2924 242.763 58.4365 240.851L58.9928 240.02C56.1497 238.116 53.3855 236.104 50.7062 233.989L50.0866 234.774C47.3824 232.639 44.7641 230.401 42.2377 228.064L42.9166 227.33C40.4078 225.01 37.9902 222.592 35.6699 220.083L34.9357 220.762C32.5992 218.236 30.3606 215.618 28.2259 212.913L29.0108 212.294C26.8958 209.614 24.8835 206.85 22.9801 204.007L22.1491 204.563C20.2372 201.708 18.4341 198.773 16.7459 195.764L17.6179 195.275C15.9499 192.303 14.3948 189.259 12.9586 186.149L12.0507 186.568C10.6117 183.452 9.29096 180.269 8.09438 177.027L9.03254 176.681C7.85499 173.49 6.79859 170.241 5.8689 166.938L4.90632 167.209C3.97797 163.911 3.17506 160.561 2.50297 157.164L3.48396 156.97C2.82527 153.64 2.29319 150.265 1.89305 146.849L0.899851 146.966C0.502238 143.572 0.233867 140.138 0.099773 136.67L1.09901 136.632C1.03318 134.929 0.999981 133.219 0.999981 131.5L0.999981 126.804L-1.86109e-05 126.804L-1.77898e-05 117.411L0.999982 117.411L0.999983 108.018L-1.69686e-05 108.018L-1.61475e-05 98.625L0.999984 98.625L0.999985 89.2321L-1.53263e-05 89.2321L-1.45052e-05 79.8393L0.999985 79.8393L0.999986 70.4464L-1.3684e-05 70.4464L-1.28629e-05 61.0536L0.999987 61.0536L0.999988 51.6607L-1.20417e-05 51.6607L-1.12206e-05 42.2678L0.999989 42.2678L0.99999 32.875L-1.03994e-05 32.875L-9.57826e-06 23.4821L0.99999 23.4821L0.999991 14.0893L-8.75711e-06 14.0893L-7.93597e-06 4.69645L0.999992 4.69645L0.999992 1.00001L4.69643 1.00001L4.69643 7.93596e-06L14.0893 8.75711e-06L14.0893 1.00001L23.4821 1.00001L23.4821 9.57826e-06L32.875 1.03994e-05L32.875 1.00001L42.2679 1.00001L42.2679 1.12206e-05L51.6607 1.20417e-05L51.6607 1.00001L61.0536 1.00001L61.0536 1.28629e-05L70.4464 1.3684e-05L70.4464 1.00001L79.8393 1.00001L79.8393 1.45052e-05L89.2322 1.53263e-05L89.2322 1.00002L98.625 1.00002L98.625 1.61475e-05L108.018 1.69686e-05L108.018 1.00002L117.411 1.00002L117.411 1.77898e-05L126.804 1.86109e-05L126.804 1.00002L131.5 1.00002C133.219 1.00002 134.929 1.03322 136.632 1.09905L136.67 0.0997814C140.138 0.233876 143.572 0.502278 146.966 0.899892L146.849 1.89309C150.265 2.29323 153.64 2.82528 156.97 3.484L157.164 2.50301C160.561 3.1751 163.911 3.97802 167.209 4.90636L166.938 5.86895C170.241 6.79864 173.49 7.85503 176.681 9.03259L177.027 8.09443C180.269 9.29101 183.452 10.6117 186.568 12.0508L186.149 12.9587C189.259 14.3949 192.303 15.9499 195.275 17.618L195.765 16.7459C198.773 18.4342 201.708 20.2372 204.564 22.1492L204.007 22.9802C206.85 24.8836 209.615 26.8958 212.294 29.0109L212.913 28.226C215.618 30.3606 218.236 32.5993 220.762 34.9358L220.083 35.6699C222.592 37.9902 225.01 40.4078 227.33 42.9167L228.064 42.2377C230.401 44.7642 232.639 47.3825 234.774 50.0866L233.989 50.7063C236.104 53.3856 238.116 56.1498 240.02 58.9929L240.851 58.4366C242.763 61.2925 244.566 64.2274 246.254 67.2355L245.382 67.725C247.05 70.6971 248.605 73.7412 250.041 76.8513L250.949 76.4321C252.388 79.5485 253.709 82.7307 254.906 85.973L253.967 86.3192C255.145 89.51 256.201 92.7594 257.131 96.062L258.094 95.791C259.022 99.0887 259.825 102.439 260.497 105.836L259.516 106.03C260.175 109.36 260.707 112.735 261.107 116.151L262.1 116.034Z" stroke="#3191FF" stroke-width="2" stroke-dasharray="10 10"/>
</svg>
