<svg width="263" height="263" viewBox="0 0 263 263" fill="none" xmlns="http://www.w3.org/2000/svg">
<path d="M1 131.5C1 129.781 1.03321 128.071 1.09903 126.368L0.099778 126.33C0.233859 122.862 0.502237 119.428 0.89986 116.034L1.89307 116.151C2.29323 112.735 2.82527 109.36 3.48396 106.03L2.50298 105.836C3.17506 102.439 3.97801 99.0887 4.90634 95.791L5.86893 96.0619C6.7986 92.7594 7.85501 89.51 9.03255 86.3192L8.0944 85.973C9.29098 82.7307 10.6117 79.5484 12.0508 76.4321L12.9586 76.8513C14.3949 73.7412 15.9499 70.6971 17.6179 67.7249L16.7459 67.2355C18.4341 64.2274 20.2372 61.2924 22.1491 58.4366L22.9801 58.9929C24.8835 56.1497 26.8958 53.3855 29.0108 50.7062L28.2259 50.0866C30.3606 47.3825 32.5992 44.7641 34.9357 42.2377L35.6699 42.9167C37.9902 40.4078 40.4078 37.9902 42.9167 35.6699L42.2377 34.9358C44.7641 32.5992 47.3824 30.3606 50.0866 28.2259L50.7062 29.0108C53.3855 26.8958 56.1497 24.8836 58.9928 22.9801L58.4365 22.1492C61.2924 20.2372 64.2274 18.4341 67.2355 16.7459L67.7249 17.618C70.6971 15.9499 73.7411 14.3949 76.8513 12.9587L76.4321 12.0508C79.5484 10.6117 82.7306 9.29099 85.973 8.09441L86.3192 9.03256C89.51 7.85501 92.7594 6.79861 96.0619 5.86893L95.7909 4.90634C99.0886 3.97801 102.439 3.17507 105.836 2.50298L106.03 3.48397C109.36 2.82527 112.735 2.29323 116.151 1.89307L116.034 0.899859C119.428 0.502236 122.862 0.233858 126.33 0.0997774L126.368 1.09903C128.071 1.03321 129.781 1 131.5 1C133.219 1 134.929 1.03321 136.632 1.09903L136.67 0.099778C140.138 0.233859 143.572 0.502237 146.966 0.89986L146.849 1.89307C150.265 2.29323 153.64 2.82527 156.97 3.48396L157.164 2.50298C160.561 3.17506 163.911 3.97801 167.209 4.90634L166.938 5.86893C170.241 6.7986 173.49 7.85501 176.681 9.03255L177.027 8.0944C180.269 9.29098 183.452 10.6117 186.568 12.0508L186.149 12.9586C189.259 14.3949 192.303 15.9499 195.275 17.6179L195.764 16.7459C198.773 18.4341 201.708 20.2372 204.563 22.1491L204.007 22.9801C206.85 24.8835 209.614 26.8958 212.294 29.0108L212.913 28.2259C215.618 30.3606 218.236 32.5992 220.762 34.9357L220.083 35.6699C222.592 37.9902 225.01 40.4078 227.33 42.9167L228.064 42.2377C230.401 44.7641 232.639 47.3824 234.774 50.0866L233.989 50.7062C236.104 53.3855 238.116 56.1497 240.02 58.9928L240.851 58.4365C242.763 61.2924 244.566 64.2274 246.254 67.2355L245.382 67.7249C247.05 70.6971 248.605 73.7411 250.041 76.8513L250.949 76.4321C252.388 79.5484 253.709 82.7306 254.906 85.973L253.967 86.3192C255.145 89.51 256.201 92.7594 257.131 96.0619L258.094 95.7909C259.022 99.0887 259.825 102.439 260.497 105.836L259.516 106.03C260.175 109.36 260.707 112.735 261.107 116.151L262.1 116.034C262.498 119.428 262.766 122.862 262.9 126.33L261.901 126.368C261.967 128.071 262 129.781 262 131.5V136.196H263V145.589H262V154.982H263V164.375H262V173.768H263V183.161H262V192.554H263V201.946H262V211.339H263V220.732H262V230.125H263V239.518H262V248.911H263V258.304H262V262H258.304V263H248.911V262H239.518V263H230.125V262H220.732V263H211.339V262H201.946V263H192.554V262H183.161V263H173.768V262H164.375V263H154.982V262H145.589V263H136.196V262H131.5C129.781 262 128.071 261.967 126.368 261.901L126.33 262.9C122.862 262.766 119.428 262.498 116.034 262.1L116.151 261.107C112.735 260.707 109.36 260.175 106.03 259.516L105.836 260.497C102.439 259.825 99.0887 259.022 95.7909 258.094L96.0619 257.131C92.7594 256.201 89.51 255.145 86.3192 253.967L85.973 254.906C82.7307 253.709 79.5484 252.388 76.4321 250.949L76.8513 250.041C73.7412 248.605 70.6971 247.05 67.7249 245.382L67.2355 246.254C64.2274 244.566 61.2924 242.763 58.4366 240.851L58.9929 240.02C56.1497 238.116 53.3855 236.104 50.7062 233.989L50.0866 234.774C47.3825 232.639 44.7641 230.401 42.2377 228.064L42.9167 227.33C40.4078 225.01 37.9902 222.592 35.6699 220.083L34.9358 220.762C32.5992 218.236 30.3606 215.618 28.2259 212.913L29.0108 212.294C26.8958 209.615 24.8836 206.85 22.9801 204.007L22.1492 204.563C20.2372 201.708 18.4341 198.773 16.7459 195.765L17.618 195.275C15.9499 192.303 14.3949 189.259 12.9587 186.149L12.0508 186.568C10.6117 183.452 9.29099 180.269 8.09441 177.027L9.03256 176.681C7.85501 173.49 6.79861 170.241 5.86893 166.938L4.90634 167.209C3.97801 163.911 3.17507 160.561 2.50298 157.164L3.48397 156.97C2.82527 153.64 2.29323 150.265 1.89307 146.849L0.899859 146.966C0.502237 143.572 0.233858 140.138 0.0997774 136.67L1.09903 136.632C1.03321 134.929 1 133.219 1 131.5Z" stroke="#3191FF" stroke-width="2" stroke-dasharray="10 10"/>
</svg>
